<svg width="21" height="21" viewBox="0 0 21 21" fill="none" xmlns="http://www.w3.org/2000/svg">
<path d="M10.4707 3.66667C14.2829 3.66667 17.3847 6.73227 17.3847 10.5C17.3847 14.2677 14.2829 17.3333 10.4707 17.3333C6.65844 17.3333 3.55663 14.2677 3.55663 10.5C3.55663 6.73227 6.65844 3.66667 10.4707 3.66667ZM10.4707 1.95833C5.69739 1.95833 1.82812 5.78244 1.82812 10.5C1.82812 15.2176 5.69739 19.0417 10.4707 19.0417C15.2439 19.0417 19.1132 15.2176 19.1132 10.5C19.1132 5.78244 15.2439 1.95833 10.4707 1.95833ZM14.7919 9.64583H11.3349V6.22917H9.60641V9.64583H6.14939V11.3542H9.60641V14.7708H11.3349V11.3542H14.7919V9.64583Z" fill="white"/>
</svg>
