<svg width="40" height="40" viewBox="0 0 40 40" fill="none" xmlns="http://www.w3.org/2000/svg">
<circle cx="20" cy="20" r="20" fill="#1D1D1D" fill-opacity="0.94"/>
<path d="M11.7764 24.8667L8.95333 21.6035C7.56248 19.9957 7.71099 17.5315 9.28439 16.1103L17.201 8.95955C18.7508 7.55963 21.1264 7.70911 22.4964 9.29277L25.3571 12.5996L11.7764 24.8667ZM19.6846 9.96982C19.2553 9.96982 18.8245 10.1234 18.4783 10.4361L10.5618 17.5869C9.78517 18.2884 9.71185 19.5047 10.3984 20.2983L11.944 22.085L22.6348 12.4283L21.0514 10.598C20.6917 10.1822 20.1892 9.96982 19.6846 9.96982Z" fill="#B5FF3F"/>
<path d="M32.0001 31.0002H11.0269V23.3335H32.0001V31.0002ZM12.9791 29.1075H30.0479V25.2261H12.9791V29.1075Z" fill="#B5FF3F"/>
</svg>
