<svg width="48" height="46" viewBox="0 0 48 46" fill="none" xmlns="http://www.w3.org/2000/svg">
<path d="M32.6208 23.138C33.3456 23.138 33.8928 23.4393 34.2648 24.0465L36.3648 27.4643L39.8688 29.5113C40.4904 29.877 40.8 30.4106 40.8 31.119C40.8 31.8251 40.488 32.361 39.8688 32.7244L36.3648 34.7714L34.2648 38.1915C34.1065 38.4749 33.8686 38.7101 33.5781 38.8706C33.2876 39.0312 32.956 39.1106 32.6208 39.1C32.2852 39.1111 31.9531 39.0318 31.6621 38.8712C31.3711 38.7107 31.1329 38.4752 30.9744 38.1915L28.8744 34.7737L25.3704 32.7244C25.0765 32.5644 24.8342 32.33 24.6699 32.0468C24.5057 31.7637 24.4259 31.4427 24.4392 31.119C24.4392 30.4106 24.7512 29.877 25.3728 29.5136L28.8768 27.4643L30.9744 24.0465C31.1329 23.7628 31.3711 23.5274 31.6621 23.3668C31.9531 23.2062 32.2852 23.127 32.6208 23.138ZM23.628 6.90002C26.0112 6.90002 28.044 7.72342 29.7312 9.36792C31.4184 11.0124 32.2608 12.9973 32.2608 15.3249C32.2608 17.6479 31.4184 19.6351 29.7312 21.2819C28.2792 22.6964 26.568 23.5037 24.6 23.6992C24.478 23.7313 24.3521 23.7475 24.2256 23.7475C20.3184 23.7475 16.9848 25.0953 14.2224 27.7909C11.46 30.4865 10.0776 33.741 10.0776 37.5544C10.0776 38.3295 9.4344 38.9574 8.6376 38.9574C8.25292 38.9538 7.88547 38.804 7.61593 38.5409C7.3464 38.2779 7.1968 37.9231 7.2 37.5544C7.2 32.9659 8.8632 29.049 12.1872 25.806C14.0064 24.0304 16.0344 22.7401 18.2664 21.9351C18.0066 21.7293 17.7582 21.5105 17.5224 21.2796C15.8376 19.6351 14.9928 17.6502 14.9928 15.3226C14.9928 12.9996 15.8376 11.0124 17.5224 9.36562C19.2072 7.72572 21.2424 6.90002 23.628 6.90002ZM32.6208 26.8295L31.2192 29.1088C31.0595 29.3727 30.8334 29.5941 30.5616 29.7528L28.224 31.119L30.5616 32.4852C30.8352 32.6462 31.056 32.8601 31.2192 33.1292L32.6208 35.4062L34.02 33.1292C34.1804 32.8651 34.4073 32.6437 34.68 32.4852L37.0152 31.119L34.68 29.7528C34.4074 29.5943 34.1805 29.3729 34.02 29.1088L32.6208 26.8295ZM23.628 9.70832C22.8677 9.6977 22.1134 9.83836 21.4128 10.1214C20.7122 10.4045 20.0805 10.8238 19.5576 11.3528C19.0116 11.8717 18.5809 12.4911 18.2913 13.1738C18.0018 13.8564 17.8594 14.5882 17.8728 15.3249C17.8728 16.8751 18.4344 18.1999 19.5576 19.2947C20.0805 19.8238 20.7122 20.2431 21.4128 20.5261C22.1134 20.8092 22.8677 20.9499 23.628 20.9392C24.3879 20.9495 25.1417 20.8087 25.8419 20.5257C26.5421 20.2426 27.1734 19.8235 27.696 19.2947C28.2421 18.7763 28.6731 18.1574 28.9631 17.4751C29.253 16.7929 29.3959 16.0615 29.3832 15.3249C29.3832 13.7724 28.8216 12.4499 27.696 11.3528C27.1734 10.8241 26.5421 10.4049 25.8419 10.1219C25.1417 9.83884 24.3879 9.69802 23.628 9.70832Z" fill="white"/>
</svg>
