<svg width="28" height="37" viewBox="0 0 28 37" fill="none" xmlns="http://www.w3.org/2000/svg">
<path d="M9.09531 21.6922H1.84873C0.902626 21.6922 0.249983 20.7621 0.586657 19.8944L7.78733 1.33171C7.88474 1.08057 8.05755 0.864424 8.28285 0.711908C8.50815 0.559392 8.77532 0.477702 9.04895 0.477661H21.1998C22.1585 0.477661 22.8121 1.43161 22.4502 2.30378L18.2575 12.4109H26.1504C27.3112 12.4109 27.9306 13.7547 27.165 14.6114L7.81343 36.2676C6.87273 37.3205 5.1286 36.4081 5.49363 35.0541L9.09531 21.6922ZM9.97931 3.12998L3.80756 19.0403H10.8489C11.0556 19.0404 11.2596 19.087 11.4451 19.1767C11.6306 19.2663 11.7926 19.3966 11.9187 19.5575C12.0448 19.7184 12.1316 19.9056 12.1725 20.1046C12.2133 20.3037 12.207 20.5093 12.1542 20.7055L9.57467 30.2769L23.1694 15.0627H16.2496C15.2909 15.0627 14.6374 14.1088 14.9993 13.2366L19.1919 3.12953H9.97931V3.12998Z" fill="white"/>
</svg>
