<svg width="40" height="40" viewBox="0 0 40 40" fill="none" xmlns="http://www.w3.org/2000/svg">
<circle cx="20" cy="20" r="20" fill="#1D1D1D" fill-opacity="0.94"/>
<path d="M18.8736 12.0856H15.1188C14.8593 12.0856 14.6599 12.0334 14.5209 11.9288C14.3818 11.8243 14.2845 11.6916 14.2288 11.5308C14.1732 11.3699 14.1454 11.189 14.1454 10.9879C14.1454 10.7869 14.1639 10.5979 14.201 10.421C14.2196 10.2441 14.2566 10.0511 14.3123 9.84198C14.3679 9.63289 14.4467 9.45597 14.5487 9.31122C14.6507 9.16647 14.7851 9.06996 14.952 9.02171C15.1188 8.97346 15.3228 9.01367 15.5638 9.14234C15.842 9.28709 16.1572 9.44391 16.5095 9.61279C16.8618 9.78166 17.2048 9.95054 17.5386 10.1194C17.8723 10.2883 18.1829 10.4411 18.4703 10.5778C18.7577 10.7145 18.9756 10.8231 19.1239 10.9035C19.3093 11.0161 19.4484 11.1407 19.5411 11.2774C19.6338 11.4142 19.6709 11.5428 19.6523 11.6635C19.6338 11.7841 19.5596 11.8846 19.4298 11.965C19.3 12.0454 19.1146 12.0856 18.8736 12.0856ZM21.043 12.0615H24.7699C25.0295 12.0615 25.2288 12.0092 25.3679 11.9047C25.507 11.8002 25.6043 11.6675 25.6599 11.5066C25.7156 11.3458 25.7434 11.1649 25.7434 10.9638C25.7434 10.7628 25.7341 10.5738 25.7156 10.3969C25.6785 10.2199 25.6367 10.031 25.5904 9.82992C25.544 9.62887 25.4699 9.45597 25.3679 9.31122C25.2659 9.16647 25.1315 9.06996 24.9646 9.02171C24.7977 8.97346 24.5938 9.00563 24.3527 9.11821C24.0746 9.26297 23.7594 9.41978 23.4071 9.58866C23.0548 9.75754 22.7071 9.92642 22.3641 10.0953C22.0211 10.2642 21.7059 10.417 21.4185 10.5537C21.1311 10.6904 20.9225 10.799 20.7927 10.8794C20.5887 10.992 20.4404 11.1166 20.3477 11.2533C20.255 11.39 20.2179 11.5187 20.2364 11.6393C20.255 11.76 20.3291 11.8605 20.4589 11.9409C20.5887 12.0213 20.7834 12.0615 21.043 12.0615ZM18.4842 13.6538H10.4185C9.82512 13.6538 9.44037 13.7382 9.26422 13.9071C9.08807 14.076 9 14.3454 9 14.7153V16.8384C9 17.2405 9.09735 17.538 9.29204 17.731C9.48673 17.924 9.87147 18.0205 10.4463 18.0205H18.4842V13.6538ZM21.5158 13.6538H29.4703C30.0636 13.6538 30.4669 13.7543 30.6802 13.9554C30.8934 14.1564 31 14.4419 31 14.8118V16.8866C31 17.2726 30.9027 17.5581 30.708 17.7431C30.5133 17.928 30.1285 18.0205 29.5537 18.0205H21.5158V13.6538ZM18.4842 19.2992H9.94564V23.2557V24.8239V26.2955V27.5501V28.4186C9.94564 29.2388 10.2145 29.8741 10.7522 30.3245C11.2899 30.7748 12.1243 31 13.2554 31H18.4842V19.2992ZM21.5158 19.2992H30.0266V28.3462C30.008 29.1665 29.7391 29.8138 29.22 30.2883C28.7008 30.7628 27.8757 31 26.7446 31H21.5158V19.2992Z" fill="#B5FF3F"/>
</svg>
