<svg width="28" height="29" viewBox="0 0 28 29" fill="none" xmlns="http://www.w3.org/2000/svg">
<path d="M7.35667 26.4278C7.00446 26.2455 6.87421 25.8202 7.06238 25.479C7.25054 25.1378 7.68957 25.0117 8.04177 25.1939C8.94398 25.666 9.90892 26.0352 10.9221 26.2829C11.9063 26.5213 12.934 26.6475 14.0002 26.6475C17.4643 26.6475 20.6004 25.2874 22.8679 23.0907C25.1355 20.894 26.5395 17.8559 26.5395 14.5001C26.5395 11.1442 25.1355 8.10619 22.8679 5.90947C20.6004 3.71275 17.4643 2.35265 14.0002 2.35265C10.5361 2.35265 7.4001 3.71275 5.13251 5.90947C2.86493 8.10619 1.46096 11.1442 1.46096 14.5001C1.46096 15.977 1.73114 17.3885 2.22808 18.6926C2.74431 20.0527 3.49695 21.2959 4.44262 22.3709C4.70314 22.6654 4.66454 23.1094 4.36059 23.3571C4.05664 23.6095 3.60312 23.5721 3.34742 23.2776C2.286 22.0718 1.43684 20.6836 0.867567 19.174C0.312743 17.7157 0.00878906 16.1406 0.00878906 14.5001C0.00878906 10.7563 1.57681 7.36772 4.10492 4.91393C6.63786 2.46482 10.1357 0.945801 14.0003 0.945801C17.8648 0.945801 21.3627 2.46482 23.8957 4.91393C26.4238 7.36772 27.9918 10.7563 27.9918 14.5001C27.9918 18.2439 26.4238 21.6324 23.8957 24.0862C21.3627 26.5353 17.8648 28.0543 14.0003 28.0543C12.8182 28.0543 11.67 27.9095 10.57 27.643C9.43609 27.3673 8.36022 26.9559 7.35667 26.4278Z" fill="black"/>
<path d="M18.8149 13.2007H15.2012L16.0793 6.19458L8.96777 15.3601H12.5766L11.7033 22.3709L18.8149 13.2007Z" fill="black"/>
</svg>
