<svg width="40" height="40" viewBox="0 0 40 40" fill="none" xmlns="http://www.w3.org/2000/svg">
<path d="M40 20C40 31.0457 31.0457 40 20 40C8.9543 40 0 31.0457 0 20C0 8.9543 8.9543 0 20 0C31.0457 0 40 8.9543 40 20Z" fill="#1D1D1D" fill-opacity="0.94"/>
<path d="M29.8986 18.6595L27.9519 13.7902C27.9698 13.7117 27.9819 13.6307 27.9819 13.5461V11.042C27.9819 10.4673 27.5293 10 26.9649 10L13.4781 10.1639C12.9351 10.1639 12.4911 10.6093 12.4702 11.1653L12.28 13.4834L12.2774 13.5464C12.2774 13.7081 12.3142 13.8582 12.3751 13.9935L10.2351 19.1117C10.09 19.3054 10 19.5452 10 19.8087V28.8551C10 29.4861 10.4972 30 11.1086 30H22.461C22.5894 30 22.7108 29.9728 22.8254 29.9313L28.7007 29.8561C29.4293 29.8371 30 29.2328 30 28.4801V19.185C29.9999 19.0047 29.9655 18.8261 29.8986 18.6595ZM13.8769 11.6478L26.541 11.4942V13.0995H13.7579L13.8769 11.6478ZM22.4022 18.6634H11.9923L13.6962 14.5882H24.4182L22.4022 18.6634ZM22.128 28.5111H11.4411V20.1523H22.1282L22.128 28.5111ZM28.5586 28.3691L23.5691 28.4327V19.8087C23.5691 19.7422 23.5608 19.6776 23.5501 19.6141L26.0363 14.5884H26.7128L28.5584 19.185L28.5586 28.3691Z" fill="#B5FF3F"/>
</svg>
