<svg width="40" height="40" viewBox="0 0 40 40" fill="none" xmlns="http://www.w3.org/2000/svg">
<circle cx="20" cy="20" r="20" fill="#1D1D1D" fill-opacity="0.94"/>
<path d="M21.742 29H11.258C11.1158 29 11 28.8673 11 28.7044V16.2956C11 16.1327 11.1158 16 11.258 16H21.742C21.8842 16 22 16.1327 22 16.2956V28.7006C22 28.8673 21.8842 29 21.742 29Z" fill="#B5FF3F"/>
<path d="M28.7133 29H23.2867C23.1274 29 23 28.8787 23 28.7271V16.2729C23 16.1213 23.1274 16 23.2867 16H28.7133C28.8726 16 29 16.1213 29 16.2729V28.7233C29 28.8749 28.8726 29 28.7133 29Z" fill="#B5FF3F"/>
<path d="M22.311 15H11.4951C11.3431 15 11.1979 14.9081 11.1034 14.7507L9.14819 11.4742C8.79024 10.8705 9.12117 10 9.70873 10H20.1059C20.4976 10 20.8691 10.2362 21.1088 10.6387L22.858 13.5696C23.2024 14.1514 22.8816 15 22.311 15Z" fill="#B5FF3F"/>
<path d="M28.3806 15H23.5566C23.1039 15 22.8395 14.3788 23.1075 13.937L25.3239 10.2537C25.4181 10.0962 25.5738 10 25.7368 10H30.1479C30.8541 10 31.2525 10.9799 30.8215 11.6535L28.8622 14.7157C28.7463 14.895 28.5689 15 28.3806 15Z" fill="#B5FF3F"/>
</svg>
