<svg width="27" height="26" viewBox="0 0 27 26" fill="none" xmlns="http://www.w3.org/2000/svg">
<path d="M21.3838 19.5044V22.2128C21.3838 22.931 21.0875 23.6199 20.56 24.1278C20.0326 24.6357 19.3172 24.9211 18.5713 24.9211H15.1963C15.1224 24.9214 15.0491 24.9076 14.9807 24.8804C14.9123 24.8533 14.8502 24.8134 14.7979 24.7631C14.7456 24.7127 14.7042 24.6529 14.676 24.587C14.6479 24.5212 14.6335 24.4506 14.6338 24.3794V23.8334C14.6338 21.9159 13.4919 20.5867 11.2498 20.5867C9.02906 20.5867 7.87256 21.9278 7.87256 23.8334V24.3783C7.87256 24.522 7.8133 24.6598 7.70781 24.7614C7.60232 24.8629 7.45924 24.92 7.31006 24.92H3.93506C3.56562 24.92 3.1998 24.8499 2.8585 24.7137C2.5172 24.5776 2.2071 24.378 1.94592 24.1264C1.68474 23.8748 1.4776 23.5761 1.33632 23.2474C1.19505 22.9186 1.12241 22.5663 1.12256 22.2106L1.13381 18.9606C1.1344 18.8173 1.19393 18.6801 1.29935 18.579C1.40478 18.4779 1.54751 18.4211 1.69631 18.4211H2.82131C4.37043 18.4211 5.62706 17.0193 5.62706 15.1711C5.62706 13.3078 4.37831 11.9211 2.82131 11.9211H1.69293C1.54375 11.9211 1.40068 11.864 1.29519 11.7624C1.1897 11.6609 1.13043 11.5231 1.13043 11.3794V8.12942C1.13043 7.41112 1.42675 6.72225 1.9542 6.21434C2.48164 5.70643 3.19701 5.42109 3.94293 5.42109H6.74756V5.41675C6.74756 2.95217 8.35631 1.08667 11.2498 1.08667C14.0713 1.08667 15.7689 3.002 15.7689 5.41675V5.42H18.5859C19.3319 5.42 20.0472 5.70534 20.5747 6.21326C21.1021 6.72117 21.3984 7.41004 21.3984 8.12834V10.8367H21.9463C24.1626 10.8367 25.8771 12.7412 25.8771 15.17C25.8771 17.5848 24.1558 19.5033 21.9463 19.5033H21.3838V19.5044ZM20.2588 18.9779V18.9628C20.2588 18.8916 20.2734 18.8212 20.3016 18.7555C20.3299 18.6897 20.3713 18.63 20.4236 18.5797C20.4758 18.5294 20.5378 18.4895 20.6061 18.4623C20.6743 18.4351 20.7474 18.4211 20.8213 18.4211H21.9463C23.4954 18.4211 24.7521 17.0193 24.7521 15.1711C24.7521 13.3078 23.5033 11.9211 21.9463 11.9211H20.8213C20.7362 11.9212 20.6521 11.9028 20.5754 11.8671C20.4988 11.8314 20.4315 11.7794 20.3788 11.715C20.326 11.6507 20.2891 11.5756 20.2709 11.4955C20.2526 11.4154 20.2535 11.3324 20.2734 11.2527V8.12834C20.2734 7.69736 20.0956 7.28403 19.7792 6.97929C19.4627 6.67454 19.0335 6.50334 18.5859 6.50334H15.2402C15.2289 6.50365 15.2177 6.50365 15.2064 6.50334C15.0573 6.50334 14.9142 6.44627 14.8087 6.34469C14.7032 6.2431 14.6439 6.10533 14.6439 5.96167V5.41675C14.6439 3.56534 13.4064 2.17 11.2498 2.17C9.02906 2.17 7.87256 3.51117 7.87256 5.41675V5.96167C7.87286 6.03288 7.85851 6.10345 7.83035 6.1693C7.80218 6.23514 7.76076 6.29497 7.70847 6.34532C7.65618 6.39568 7.59405 6.43557 7.52567 6.46269C7.45729 6.48981 7.38401 6.50362 7.31006 6.50334H3.94293C3.49538 6.50334 3.06616 6.67454 2.74969 6.97929C2.43322 7.28403 2.25543 7.69736 2.25543 8.12834V10.8367H2.82131C5.03756 10.8367 6.75206 12.7412 6.75206 15.17C6.75206 17.5848 5.03081 19.5033 2.82131 19.5033H2.25656L2.24756 22.2117C2.24756 22.6426 2.42535 23.056 2.74182 23.3607C3.05828 23.6655 3.48751 23.8367 3.93506 23.8367H6.74756V23.8334C6.74756 21.3688 8.35631 19.5033 11.2498 19.5033C14.1658 19.5033 15.7588 21.3569 15.7588 23.8334V23.8378H18.5713C19.0189 23.8378 19.4481 23.6665 19.7646 23.3618C20.081 23.0571 20.2588 22.6437 20.2588 22.2128V18.9779Z" fill="black"/>
</svg>
